<svg width="44" height="44" viewBox="0 0 44 44" fill="none" xmlns="http://www.w3.org/2000/svg">
<path d="M25.6541 27.3728C26.6561 29.8753 28.1016 30.25 28.875 30.25C29.6484 30.25 31.0939 29.8753 32.0959 27.3728C32.6786 25.9153 33 24.0075 33 22C33 19.9925 32.6786 18.0847 32.0959 16.6272C31.0939 14.1247 29.6484 13.75 28.875 13.75C28.1016 13.75 26.6561 14.1247 25.6541 16.6272C25.0714 18.0847 24.75 19.9925 24.75 22C24.75 24.0075 25.0714 25.9153 25.6541 27.3728ZM28.875 16.5344C29.3253 16.8884 30.25 18.7688 30.25 22C30.25 25.2312 29.3253 27.1116 28.875 27.4656C28.4247 27.1116 27.5 25.2312 27.5 22C27.5 18.7688 28.4247 16.8884 28.875 16.5344ZM39.875 37.125H33.758C36.63 33.9848 38.5 28.4402 38.5 22C38.5 11.9763 33.9711 4.125 28.1875 4.125H15.8125C10.0289 4.125 5.5 11.9763 5.5 22C5.5 32.0237 10.0289 39.875 15.8125 39.875H39.875C40.2397 39.875 40.5894 39.7301 40.8473 39.4723C41.1051 39.2144 41.25 38.8647 41.25 38.5C41.25 38.1353 41.1051 37.7856 40.8473 37.5277C40.5894 37.2699 40.2397 37.125 39.875 37.125ZM33.2991 10.988C34.8786 13.9064 35.75 17.8183 35.75 22C35.75 26.1817 34.8786 30.0936 33.2991 33.012C31.8622 35.6641 30.0472 37.125 28.1875 37.125C26.3278 37.125 24.5128 35.6641 23.0759 33.012C21.4964 30.0936 20.625 26.1817 20.625 22C20.625 17.8183 21.4964 13.9064 23.0759 10.988C24.5128 8.33594 26.3278 6.875 28.1875 6.875C30.0472 6.875 31.8622 8.33594 33.2991 10.988ZM8.25 22C8.25 21.5703 8.26203 21.1406 8.27922 20.7212L13.75 16.8145L17.9489 19.8137C17.9008 20.5287 17.875 21.2592 17.875 22C17.8706 23.9315 18.0473 25.8592 18.4027 27.7578L14.5492 25.0078C14.316 24.8412 14.0366 24.7517 13.75 24.7517C13.4634 24.7517 13.184 24.8412 12.9508 25.0078L8.87047 27.9297C8.4507 25.9812 8.24267 23.9931 8.25 22ZM10.7009 10.988C12.1378 8.33594 13.9528 6.875 15.8125 6.875H22.617C20.5717 9.10938 19.0352 12.5675 18.3202 16.6994L14.5492 14.0061C14.316 13.8395 14.0366 13.75 13.75 13.75C13.4634 13.75 13.184 13.8395 12.9508 14.0061L8.67797 17.0586C9.08359 14.7812 9.76766 12.7188 10.7009 10.988ZM10.7009 33.012C10.3054 32.2748 9.96418 31.5096 9.68 30.7227L13.75 27.8145L19.5834 31.9808C20.3741 34.0433 21.4053 35.7998 22.617 37.125H15.8125C13.9528 37.125 12.1378 35.6641 10.7009 33.012Z" fill="black"/>
</svg>
