<svg width="234" height="44" viewBox="0 0 234 44" fill="none" xmlns="http://www.w3.org/2000/svg">
<path d="M25.6541 27.3728C26.6561 29.8753 28.1016 30.25 28.875 30.25C29.6484 30.25 31.0939 29.8753 32.0959 27.3728C32.6786 25.9153 33 24.0075 33 22C33 19.9925 32.6786 18.0847 32.0959 16.6272C31.0939 14.1247 29.6484 13.75 28.875 13.75C28.1016 13.75 26.6561 14.1247 25.6541 16.6272C25.0714 18.0847 24.75 19.9925 24.75 22C24.75 24.0075 25.0714 25.9153 25.6541 27.3728ZM28.875 16.5344C29.3253 16.8884 30.25 18.7688 30.25 22C30.25 25.2312 29.3253 27.1116 28.875 27.4656C28.4247 27.1116 27.5 25.2312 27.5 22C27.5 18.7688 28.4247 16.8884 28.875 16.5344ZM39.875 37.125H33.758C36.63 33.9848 38.5 28.4402 38.5 22C38.5 11.9763 33.9711 4.125 28.1875 4.125H15.8125C10.0289 4.125 5.5 11.9763 5.5 22C5.5 32.0237 10.0289 39.875 15.8125 39.875H39.875C40.2397 39.875 40.5894 39.7301 40.8473 39.4723C41.1051 39.2144 41.25 38.8647 41.25 38.5C41.25 38.1353 41.1051 37.7856 40.8473 37.5277C40.5894 37.2699 40.2397 37.125 39.875 37.125ZM33.2991 10.988C34.8786 13.9064 35.75 17.8183 35.75 22C35.75 26.1817 34.8786 30.0936 33.2991 33.012C31.8622 35.6641 30.0472 37.125 28.1875 37.125C26.3278 37.125 24.5128 35.6641 23.0759 33.012C21.4964 30.0936 20.625 26.1817 20.625 22C20.625 17.8183 21.4964 13.9064 23.0759 10.988C24.5128 8.33594 26.3278 6.875 28.1875 6.875C30.0472 6.875 31.8622 8.33594 33.2991 10.988ZM8.25 22C8.25 21.5703 8.26203 21.1406 8.27922 20.7212L13.75 16.8145L17.9489 19.8137C17.9008 20.5287 17.875 21.2592 17.875 22C17.8706 23.9315 18.0473 25.8592 18.4027 27.7578L14.5492 25.0078C14.316 24.8412 14.0366 24.7517 13.75 24.7517C13.4634 24.7517 13.184 24.8412 12.9508 25.0078L8.87047 27.9297C8.4507 25.9812 8.24267 23.9931 8.25 22ZM10.7009 10.988C12.1378 8.33594 13.9528 6.875 15.8125 6.875H22.617C20.5717 9.10938 19.0352 12.5675 18.3202 16.6994L14.5492 14.0061C14.316 13.8395 14.0366 13.75 13.75 13.75C13.4634 13.75 13.184 13.8395 12.9508 14.0061L8.67797 17.0586C9.08359 14.7812 9.76766 12.7188 10.7009 10.988ZM10.7009 33.012C10.3054 32.2748 9.96418 31.5096 9.68 30.7227L13.75 27.8145L19.5834 31.9808C20.3741 34.0433 21.4053 35.7998 22.617 37.125H15.8125C13.9528 37.125 12.1378 35.6641 10.7009 33.012Z" fill="black"/>
<path d="M50.1378 4.90909H53.5511L57.1562 13.7045H57.3097L60.9148 4.90909H64.3281V18H61.6435V9.4794H61.5348L58.147 17.9361H56.3189L52.9311 9.44744H52.8224V18H50.1378V4.90909ZM70.5716 18.1918C69.6681 18.1918 68.8883 18.0298 68.2321 17.706C67.5758 17.3821 67.0708 16.9432 66.7172 16.3892C66.3677 15.831 66.193 15.2088 66.193 14.5227C66.193 14.0114 66.2953 13.5575 66.4998 13.1612C66.7044 12.7649 66.9899 12.4006 67.3564 12.0682C67.7228 11.7315 68.149 11.397 68.6348 11.0646L71.1724 9.39631C71.5005 9.1875 71.7413 8.96804 71.8947 8.73793C72.0481 8.50355 72.1248 8.25 72.1248 7.97727C72.1248 7.71733 72.0204 7.47656 71.8116 7.25497C71.6028 7.03338 71.3066 6.92472 70.9231 6.92898C70.6674 6.92898 70.4458 6.98651 70.2583 7.10156C70.0708 7.21236 69.9238 7.35937 69.8173 7.54261C69.715 7.72159 69.6639 7.92187 69.6639 8.14347C69.6639 8.41619 69.7406 8.69318 69.894 8.97443C70.0474 9.25568 70.252 9.55398 70.5076 9.86932C70.7633 10.1804 71.0424 10.517 71.345 10.8793L77.5517 18H74.7136L69.536 12.2344C69.1951 11.8466 68.8542 11.4418 68.5133 11.0199C68.1767 10.5937 67.8954 10.142 67.6696 9.66477C67.4437 9.18324 67.3308 8.66122 67.3308 8.09872C67.3308 7.46378 67.4778 6.89276 67.7718 6.38565C68.0701 5.87855 68.4877 5.47798 69.0247 5.18395C69.5616 4.88565 70.188 4.73651 70.9039 4.73651C71.6028 4.73651 72.2058 4.87926 72.7129 5.16477C73.2243 5.44602 73.6163 5.82102 73.889 6.28977C74.166 6.75426 74.3045 7.26562 74.3045 7.82386C74.3045 8.44176 74.1511 9.00213 73.8443 9.50497C73.5417 10.0036 73.1156 10.451 72.5659 10.8473L69.894 12.7713C69.5318 13.0355 69.2633 13.3061 69.0886 13.5831C68.9181 13.8558 68.8329 14.1179 68.8329 14.3693C68.8329 14.6804 68.9096 14.9595 69.063 15.2067C69.2164 15.4538 69.4338 15.6499 69.715 15.7947C69.9963 15.9354 70.3265 16.0057 70.7058 16.0057C71.166 16.0057 71.6199 15.9013 72.0673 15.6925C72.519 15.4794 72.9281 15.179 73.2946 14.7912C73.6653 14.3991 73.9615 13.9347 74.1831 13.3977C74.4047 12.8608 74.5154 12.2663 74.5154 11.6143H76.7718C76.7718 12.4155 76.6845 13.1378 76.5098 13.7812C76.3351 14.4205 76.0922 14.9787 75.7811 15.456C75.47 15.929 75.1142 16.3168 74.7136 16.6193C74.5858 16.7003 74.4622 16.777 74.3429 16.8494C74.2235 16.9219 74.1 16.9986 73.9721 17.0795C73.4863 17.4716 72.943 17.755 72.3422 17.9297C71.7456 18.1044 71.1554 18.1918 70.5716 18.1918ZM83.378 18H78.7374V4.90909H83.4164C84.7331 4.90909 85.8667 5.17116 86.8169 5.69531C87.7672 6.2152 88.498 6.96307 89.0094 7.93892C89.525 8.91477 89.7828 10.0824 89.7828 11.4418C89.7828 12.8054 89.525 13.9773 89.0094 14.9574C88.498 15.9375 87.763 16.6896 86.8042 17.2138C85.8496 17.7379 84.7076 18 83.378 18ZM81.5051 15.6286H83.263C84.0811 15.6286 84.7694 15.4837 85.3276 15.1939C85.8901 14.8999 86.312 14.446 86.5932 13.8324C86.8787 13.2145 87.0215 12.4176 87.0215 11.4418C87.0215 10.4744 86.8787 9.68395 86.5932 9.07031C86.312 8.45668 85.8922 8.00497 85.334 7.7152C84.7757 7.42543 84.0875 7.28054 83.2694 7.28054H81.5051V15.6286ZM95.9224 18V16.0057L100.582 11.6911C100.979 11.3075 101.311 10.9624 101.579 10.6555C101.852 10.3487 102.059 10.0483 102.199 9.75426C102.34 9.45597 102.41 9.13423 102.41 8.78906C102.41 8.40554 102.323 8.07528 102.148 7.7983C101.974 7.51705 101.735 7.30185 101.432 7.1527C101.13 6.99929 100.787 6.92259 100.403 6.92259C100.003 6.92259 99.6532 7.00355 99.3549 7.16548C99.0566 7.32741 98.8265 7.55966 98.6646 7.86222C98.5027 8.16477 98.4217 8.52486 98.4217 8.94247H95.7946C95.7946 8.08594 95.9885 7.34233 96.3762 6.71165C96.764 6.08097 97.3074 5.59304 98.0062 5.24787C98.7051 4.9027 99.5105 4.73011 100.422 4.73011C101.36 4.73011 102.176 4.89631 102.871 5.22869C103.569 5.55682 104.113 6.01278 104.501 6.59659C104.888 7.1804 105.082 7.84943 105.082 8.60369C105.082 9.09801 104.984 9.58594 104.788 10.0675C104.596 10.549 104.253 11.0838 103.759 11.6719C103.265 12.2557 102.568 12.9567 101.669 13.7749L99.7576 15.6477V15.7372H105.255V18H95.9224ZM106.781 15.6989V13.5192L112.246 4.90909H114.125V7.92614H113.013L109.568 13.3786V13.4808H117.334V15.6989H106.781ZM113.064 18V15.0341L113.115 14.0689V4.90909H115.711V18H113.064ZM121.927 12.3239V18H119.204V4.90909H121.85V9.91406H121.965C122.187 9.33452 122.545 8.88068 123.039 8.55256C123.533 8.22017 124.153 8.05398 124.899 8.05398C125.581 8.05398 126.175 8.20312 126.683 8.50142C127.194 8.79545 127.59 9.21946 127.871 9.77344C128.157 10.3232 128.298 10.9815 128.293 11.7486V18H125.57V12.2344C125.575 11.6293 125.421 11.1584 125.11 10.8217C124.803 10.4851 124.373 10.3168 123.819 10.3168C123.448 10.3168 123.12 10.3956 122.835 10.5533C122.553 10.7109 122.332 10.9411 122.17 11.2436C122.012 11.5419 121.931 11.902 121.927 12.3239ZM130.436 18V8.18182H133.076V9.89489H133.178C133.357 9.28551 133.658 8.82528 134.08 8.5142C134.502 8.19886 134.987 8.04119 135.537 8.04119C135.673 8.04119 135.82 8.04972 135.978 8.06676C136.136 8.08381 136.274 8.10724 136.394 8.13707V10.5533C136.266 10.5149 136.089 10.4808 135.863 10.451C135.637 10.4212 135.431 10.4062 135.243 10.4062C134.843 10.4062 134.485 10.4936 134.169 10.6683C133.858 10.8388 133.611 11.0774 133.428 11.3842C133.249 11.6911 133.159 12.0447 133.159 12.4453V18H130.436ZM141.52 7.19105V4.90909H152.271V7.19105H148.264V18H145.528V7.19105H141.52ZM153.991 18V8.18182H156.714V18H153.991ZM155.359 6.91619C154.954 6.91619 154.607 6.78196 154.317 6.51349C154.031 6.24077 153.889 5.91477 153.889 5.53551C153.889 5.16051 154.031 4.83878 154.317 4.57031C154.607 4.29758 154.954 4.16122 155.359 4.16122C155.764 4.16122 156.109 4.29758 156.394 4.57031C156.684 4.83878 156.829 5.16051 156.829 5.53551C156.829 5.91477 156.684 6.24077 156.394 6.51349C156.109 6.78196 155.764 6.91619 155.359 6.91619ZM158.895 18V8.18182H161.535V9.89489H161.637C161.816 9.28551 162.117 8.82528 162.539 8.5142C162.961 8.19886 163.446 8.04119 163.996 8.04119C164.132 8.04119 164.279 8.04972 164.437 8.06676C164.595 8.08381 164.733 8.10724 164.853 8.13707V10.5533C164.725 10.5149 164.548 10.4808 164.322 10.451C164.096 10.4212 163.89 10.4062 163.702 10.4062C163.301 10.4062 162.944 10.4936 162.628 10.6683C162.317 10.8388 162.07 11.0774 161.887 11.3842C161.708 11.6911 161.618 12.0447 161.618 12.4453V18H158.895ZM170.278 18.1918C169.268 18.1918 168.399 17.9872 167.67 17.5781C166.945 17.1648 166.387 16.581 165.995 15.8267C165.603 15.0682 165.407 14.1712 165.407 13.1357C165.407 12.1257 165.603 11.2393 165.995 10.4766C166.387 9.71378 166.939 9.11932 167.651 8.69318C168.367 8.26705 169.206 8.05398 170.169 8.05398C170.817 8.05398 171.42 8.15838 171.978 8.36719C172.541 8.57173 173.031 8.88068 173.448 9.29403C173.87 9.70739 174.198 10.2273 174.433 10.8537C174.667 11.4759 174.784 12.2045 174.784 13.0398V13.7876H166.494V12.1001H172.221C172.221 11.7081 172.136 11.3608 171.965 11.0582C171.795 10.7557 171.558 10.5192 171.256 10.3487C170.958 10.174 170.61 10.0866 170.214 10.0866C169.801 10.0866 169.434 10.1825 169.115 10.3743C168.799 10.5618 168.552 10.8153 168.373 11.1349C168.194 11.4503 168.102 11.8018 168.098 12.1896V13.794C168.098 14.2798 168.188 14.6996 168.367 15.0533C168.55 15.407 168.808 15.6797 169.14 15.8714C169.472 16.0632 169.867 16.1591 170.323 16.1591C170.625 16.1591 170.902 16.1165 171.154 16.0312C171.405 15.946 171.62 15.8182 171.799 15.6477C171.978 15.4773 172.115 15.2685 172.208 15.0213L174.727 15.1875C174.599 15.7926 174.337 16.321 173.941 16.7727C173.548 17.2202 173.041 17.5696 172.419 17.821C171.801 18.0682 171.088 18.1918 170.278 18.1918ZM184.73 10.9815L182.237 11.1349C182.195 10.9219 182.103 10.7301 181.963 10.5597C181.822 10.3849 181.637 10.2464 181.406 10.1442C181.181 10.0376 180.91 9.98438 180.595 9.98438C180.173 9.98438 179.817 10.0739 179.527 10.2528C179.237 10.4276 179.093 10.6619 179.093 10.956C179.093 11.1903 179.186 11.3885 179.374 11.5504C179.561 11.7124 179.883 11.8423 180.339 11.9403L182.116 12.2983C183.07 12.4943 183.782 12.8097 184.251 13.2443C184.72 13.679 184.954 14.25 184.954 14.9574C184.954 15.6009 184.764 16.1655 184.385 16.6513C184.01 17.1371 183.494 17.5163 182.838 17.7891C182.186 18.0575 181.434 18.1918 180.582 18.1918C179.282 18.1918 178.247 17.9212 177.475 17.38C176.708 16.8345 176.259 16.093 176.127 15.1555L178.805 15.0149C178.886 15.4112 179.082 15.7138 179.393 15.9226C179.704 16.1271 180.102 16.2294 180.588 16.2294C181.066 16.2294 181.449 16.1378 181.739 15.9545C182.033 15.767 182.182 15.5263 182.186 15.2322C182.182 14.9851 182.078 14.7827 181.873 14.625C181.669 14.4631 181.353 14.3395 180.927 14.2543L179.227 13.9155C178.268 13.7237 177.554 13.3913 177.085 12.9183C176.621 12.4453 176.389 11.8423 176.389 11.1094C176.389 10.4787 176.559 9.93537 176.9 9.4794C177.245 9.02344 177.729 8.67188 178.351 8.42472C178.977 8.17756 179.71 8.05398 180.55 8.05398C181.79 8.05398 182.766 8.31605 183.477 8.8402C184.193 9.36435 184.611 10.0781 184.73 10.9815ZM194.849 18.1918C193.945 18.1918 193.166 18.0298 192.509 17.706C191.853 17.3821 191.348 16.9432 190.994 16.3892C190.645 15.831 190.47 15.2088 190.47 14.5227C190.47 14.0114 190.573 13.5575 190.777 13.1612C190.982 12.7649 191.267 12.4006 191.634 12.0682C192 11.7315 192.426 11.397 192.912 11.0646L195.45 9.39631C195.778 9.1875 196.019 8.96804 196.172 8.73793C196.325 8.50355 196.402 8.25 196.402 7.97727C196.402 7.71733 196.298 7.47656 196.089 7.25497C195.88 7.03338 195.584 6.92472 195.2 6.92898C194.945 6.92898 194.723 6.98651 194.536 7.10156C194.348 7.21236 194.201 7.35937 194.095 7.54261C193.992 7.72159 193.941 7.92187 193.941 8.14347C193.941 8.41619 194.018 8.69318 194.171 8.97443C194.325 9.25568 194.529 9.55398 194.785 9.86932C195.041 10.1804 195.32 10.517 195.622 10.8793L201.829 18H198.991L193.813 12.2344C193.472 11.8466 193.132 11.4418 192.791 11.0199C192.454 10.5937 192.173 10.142 191.947 9.66477C191.721 9.18324 191.608 8.66122 191.608 8.09872C191.608 7.46378 191.755 6.89276 192.049 6.38565C192.347 5.87855 192.765 5.47798 193.302 5.18395C193.839 4.88565 194.465 4.73651 195.181 4.73651C195.88 4.73651 196.483 4.87926 196.99 5.16477C197.502 5.44602 197.894 5.82102 198.166 6.28977C198.443 6.75426 198.582 7.26562 198.582 7.82386C198.582 8.44176 198.428 9.00213 198.122 9.50497C197.819 10.0036 197.393 10.451 196.843 10.8473L194.171 12.7713C193.809 13.0355 193.541 13.3061 193.366 13.5831C193.195 13.8558 193.11 14.1179 193.11 14.3693C193.11 14.6804 193.187 14.9595 193.34 15.2067C193.494 15.4538 193.711 15.6499 193.992 15.7947C194.274 15.9354 194.604 16.0057 194.983 16.0057C195.443 16.0057 195.897 15.9013 196.345 15.6925C196.796 15.4794 197.205 15.179 197.572 14.7912C197.943 14.3991 198.239 13.9347 198.46 13.3977C198.682 12.8608 198.793 12.2663 198.793 11.6143H201.049C201.049 12.4155 200.962 13.1378 200.787 13.7812C200.612 14.4205 200.369 14.9787 200.058 15.456C199.747 15.929 199.392 16.3168 198.991 16.6193C198.863 16.7003 198.74 16.777 198.62 16.8494C198.501 16.9219 198.377 16.9986 198.249 17.0795C197.764 17.4716 197.22 17.755 196.619 17.9297C196.023 18.1044 195.433 18.1918 194.849 18.1918ZM50.1378 40V26.9091H55.3026C56.2912 26.9091 57.1349 27.0859 57.8338 27.4396C58.5369 27.7891 59.0717 28.2855 59.4382 28.929C59.8089 29.5682 59.9943 30.3203 59.9943 31.1854C59.9943 32.0547 59.8068 32.8026 59.4318 33.429C59.0568 34.0511 58.5135 34.5284 57.8018 34.8608C57.0945 35.1932 56.2379 35.3594 55.2322 35.3594H51.7741V33.1349H54.7848C55.3132 33.1349 55.7521 33.0625 56.1016 32.9176C56.451 32.7727 56.7109 32.5554 56.8814 32.2656C57.0561 31.9759 57.1435 31.6158 57.1435 31.1854C57.1435 30.7507 57.0561 30.3842 56.8814 30.0859C56.7109 29.7876 56.4489 29.5618 56.0952 29.4084C55.7457 29.2507 55.3047 29.1719 54.772 29.1719H52.9055V40H50.1378ZM57.2074 34.0426L60.4609 40H57.4055L54.2223 34.0426H57.2074ZM66.177 40.1918C65.1841 40.1918 64.3255 39.9808 63.601 39.5589C62.8809 39.1328 62.3248 38.5405 61.9327 37.782C61.5407 37.0192 61.3446 36.1349 61.3446 35.1293C61.3446 34.1151 61.5407 33.2287 61.9327 32.4702C62.3248 31.7074 62.8809 31.1151 63.601 30.6932C64.3255 30.267 65.1841 30.054 66.177 30.054C67.1699 30.054 68.0265 30.267 68.7466 30.6932C69.4711 31.1151 70.0293 31.7074 70.4213 32.4702C70.8134 33.2287 71.0094 34.1151 71.0094 35.1293C71.0094 36.1349 70.8134 37.0192 70.4213 37.782C70.0293 38.5405 69.4711 39.1328 68.7466 39.5589C68.0265 39.9808 67.1699 40.1918 66.177 40.1918ZM66.1898 38.0824C66.6415 38.0824 67.0186 37.9545 67.3212 37.6989C67.6238 37.4389 67.8517 37.0852 68.0051 36.6378C68.1628 36.1903 68.2417 35.6811 68.2417 35.1101C68.2417 34.5391 68.1628 34.0298 68.0051 33.5824C67.8517 33.1349 67.6238 32.7812 67.3212 32.5213C67.0186 32.2614 66.6415 32.1314 66.1898 32.1314C65.7338 32.1314 65.3503 32.2614 65.0392 32.5213C64.7324 32.7812 64.5002 33.1349 64.3425 33.5824C64.1891 34.0298 64.1124 34.5391 64.1124 35.1101C64.1124 35.6811 64.1891 36.1903 64.3425 36.6378C64.5002 37.0852 64.7324 37.4389 65.0392 37.6989C65.3503 37.9545 65.7338 38.0824 66.1898 38.0824ZM75.5797 40.1854C74.9533 40.1854 74.3951 40.0767 73.905 39.8594C73.415 39.6378 73.0272 39.3118 72.7417 38.8814C72.4604 38.4467 72.3198 37.9055 72.3198 37.2578C72.3198 36.7124 72.4199 36.2543 72.6202 35.8835C72.8205 35.5128 73.0932 35.2145 73.4384 34.9886C73.7836 34.7628 74.1756 34.5923 74.6145 34.4773C75.0577 34.3622 75.5222 34.2812 76.008 34.2344C76.579 34.1747 77.0392 34.1193 77.3887 34.0682C77.7381 34.0128 77.9917 33.9318 78.1493 33.8253C78.307 33.7187 78.3858 33.5611 78.3858 33.3523V33.3139C78.3858 32.9091 78.258 32.5959 78.0023 32.3743C77.7509 32.1527 77.3929 32.0419 76.9284 32.0419C76.4384 32.0419 76.0485 32.1506 75.7587 32.3679C75.4689 32.581 75.2772 32.8494 75.1834 33.1733L72.665 32.9688C72.7928 32.3722 73.0442 31.8565 73.4192 31.4219C73.7942 30.983 74.2779 30.6463 74.8702 30.4119C75.4668 30.1733 76.1571 30.054 76.9412 30.054C77.4867 30.054 78.0087 30.1179 78.5073 30.2457C79.0101 30.3736 79.4554 30.5717 79.8432 30.8402C80.2353 31.1087 80.5442 31.4538 80.7701 31.8757C80.9959 32.2933 81.1088 32.794 81.1088 33.3778V40H78.5265V38.6385H78.4498C78.2921 38.9453 78.0811 39.2159 77.8169 39.4503C77.5527 39.6804 77.2353 39.8615 76.8645 39.9936C76.4938 40.1214 76.0655 40.1854 75.5797 40.1854ZM76.3596 38.3061C76.7601 38.3061 77.1138 38.2273 77.4206 38.0696C77.7275 37.9077 77.9682 37.6903 78.1429 37.4176C78.3176 37.1449 78.405 36.8359 78.405 36.4908V35.4489C78.3198 35.5043 78.2026 35.5554 78.0534 35.6023C77.9086 35.6449 77.7445 35.6854 77.5613 35.7237C77.378 35.7578 77.1948 35.7898 77.0115 35.8196C76.8283 35.8452 76.6621 35.8686 76.513 35.8899C76.1934 35.9368 75.9142 36.0114 75.6756 36.1136C75.437 36.2159 75.2516 36.3544 75.1195 36.5291C74.9874 36.6996 74.9213 36.9126 74.9213 37.1683C74.9213 37.5391 75.0556 37.8224 75.324 38.0185C75.5968 38.2102 75.9419 38.3061 76.3596 38.3061ZM86.8393 40.1598C86.0936 40.1598 85.4181 39.968 84.813 39.5845C84.2122 39.1967 83.7349 38.6278 83.3812 37.8778C83.0318 37.1236 82.8571 36.1989 82.8571 35.1037C82.8571 33.9787 83.0382 33.0433 83.4004 32.2976C83.7626 31.5476 84.2441 30.9872 84.845 30.6165C85.4501 30.2415 86.1127 30.054 86.8329 30.054C87.3826 30.054 87.8407 30.1477 88.2072 30.3352C88.5779 30.5185 88.8762 30.7486 89.1021 31.0256C89.3322 31.2983 89.5069 31.5668 89.6262 31.831H89.7093V26.9091H92.426V40H89.7413V38.4276H89.6262C89.4984 38.7003 89.3173 38.9709 89.0829 39.2393C88.8528 39.5036 88.5524 39.723 88.1816 39.8977C87.8152 40.0724 87.3677 40.1598 86.8393 40.1598ZM87.7022 37.9929C88.1412 37.9929 88.5119 37.8736 88.8145 37.6349C89.1213 37.392 89.3556 37.0533 89.5176 36.6186C89.6838 36.1839 89.7669 35.6747 89.7669 35.0909C89.7669 34.5071 89.6859 34 89.524 33.5696C89.362 33.1392 89.1277 32.8068 88.8208 32.5724C88.514 32.3381 88.1412 32.2209 87.7022 32.2209C87.2548 32.2209 86.8777 32.3423 86.5708 32.5852C86.264 32.8281 86.0318 33.1648 85.8741 33.5952C85.7164 34.0256 85.6376 34.5241 85.6376 35.0909C85.6376 35.6619 85.7164 36.1669 85.8741 36.6058C86.036 37.0405 86.2683 37.3814 86.5708 37.6286C86.8777 37.8714 87.2548 37.9929 87.7022 37.9929ZM102.834 32.9815L100.341 33.1349C100.298 32.9219 100.207 32.7301 100.066 32.5597C99.9254 32.3849 99.7401 32.2464 99.5099 32.1442C99.2841 32.0376 99.0135 31.9844 98.6982 31.9844C98.2763 31.9844 97.9205 32.0739 97.6307 32.2528C97.3409 32.4276 97.196 32.6619 97.196 32.956C97.196 33.1903 97.2898 33.3885 97.4773 33.5504C97.6648 33.7124 97.9865 33.8423 98.4425 33.9403L100.219 34.2983C101.174 34.4943 101.886 34.8097 102.354 35.2443C102.823 35.679 103.058 36.25 103.058 36.9574C103.058 37.6009 102.868 38.1655 102.489 38.6513C102.114 39.1371 101.598 39.5163 100.942 39.7891C100.29 40.0575 99.5376 40.1918 98.6854 40.1918C97.3857 40.1918 96.3501 39.9212 95.5788 39.38C94.8118 38.8345 94.3622 38.093 94.2301 37.1555L96.9084 37.0149C96.9893 37.4112 97.1854 37.7138 97.4964 37.9226C97.8075 38.1271 98.206 38.2294 98.6918 38.2294C99.169 38.2294 99.5526 38.1378 99.8423 37.9545C100.136 37.767 100.286 37.5263 100.29 37.2322C100.286 36.9851 100.181 36.7827 99.9766 36.625C99.772 36.4631 99.4567 36.3395 99.0305 36.2543L97.3303 35.9155C96.3714 35.7237 95.6577 35.3913 95.1889 34.9183C94.7244 34.4453 94.4922 33.8423 94.4922 33.1094C94.4922 32.4787 94.6626 31.9354 95.0036 31.4794C95.3487 31.0234 95.8324 30.6719 96.4545 30.4247C97.081 30.1776 97.8139 30.054 98.6534 30.054C99.8935 30.054 100.869 30.3161 101.581 30.8402C102.297 31.3643 102.714 32.0781 102.834 32.9815ZM104.772 40V30.1818H107.495V40H104.772ZM106.14 28.9162C105.735 28.9162 105.388 28.782 105.098 28.5135C104.813 28.2408 104.67 27.9148 104.67 27.5355C104.67 27.1605 104.813 26.8388 105.098 26.5703C105.388 26.2976 105.735 26.1612 106.14 26.1612C106.545 26.1612 106.89 26.2976 107.176 26.5703C107.465 26.8388 107.61 27.1605 107.61 27.5355C107.61 27.9148 107.465 28.2408 107.176 28.5135C106.89 28.782 106.545 28.9162 106.14 28.9162ZM113.294 40.1598C112.549 40.1598 111.873 39.968 111.268 39.5845C110.667 39.1967 110.19 38.6278 109.836 37.8778C109.487 37.1236 109.312 36.1989 109.312 35.1037C109.312 33.9787 109.493 33.0433 109.855 32.2976C110.218 31.5476 110.699 30.9872 111.3 30.6165C111.905 30.2415 112.568 30.054 113.288 30.054C113.838 30.054 114.296 30.1477 114.662 30.3352C115.033 30.5185 115.331 30.7486 115.557 31.0256C115.787 31.2983 115.962 31.5668 116.081 31.831H116.164V26.9091H118.881V40H116.196V38.4276H116.081C115.953 38.7003 115.772 38.9709 115.538 39.2393C115.308 39.5036 115.007 39.723 114.637 39.8977C114.27 40.0724 113.823 40.1598 113.294 40.1598ZM114.157 37.9929C114.596 37.9929 114.967 37.8736 115.27 37.6349C115.576 37.392 115.811 37.0533 115.973 36.6186C116.139 36.1839 116.222 35.6747 116.222 35.0909C116.222 34.5071 116.141 34 115.979 33.5696C115.817 33.1392 115.583 32.8068 115.276 32.5724C114.969 32.3381 114.596 32.2209 114.157 32.2209C113.71 32.2209 113.333 32.3423 113.026 32.5852C112.719 32.8281 112.487 33.1648 112.329 33.5952C112.172 34.0256 112.093 34.5241 112.093 35.0909C112.093 35.6619 112.172 36.1669 112.329 36.6058C112.491 37.0405 112.723 37.3814 113.026 37.6286C113.333 37.8714 113.71 37.9929 114.157 37.9929ZM125.594 40.1918C124.584 40.1918 123.715 39.9872 122.986 39.5781C122.262 39.1648 121.704 38.581 121.312 37.8267C120.92 37.0682 120.724 36.1712 120.724 35.1357C120.724 34.1257 120.92 33.2393 121.312 32.4766C121.704 31.7138 122.256 31.1193 122.967 30.6932C123.683 30.267 124.523 30.054 125.486 30.054C126.133 30.054 126.736 30.1584 127.295 30.3672C127.857 30.5717 128.347 30.8807 128.765 31.294C129.187 31.7074 129.515 32.2273 129.749 32.8537C129.983 33.4759 130.101 34.2045 130.101 35.0398V35.7876H121.81V34.1001H127.537C127.537 33.7081 127.452 33.3608 127.282 33.0582C127.111 32.7557 126.875 32.5192 126.572 32.3487C126.274 32.174 125.927 32.0866 125.53 32.0866C125.117 32.0866 124.751 32.1825 124.431 32.3743C124.116 32.5618 123.868 32.8153 123.689 33.1349C123.51 33.4503 123.419 33.8018 123.415 34.1896V35.794C123.415 36.2798 123.504 36.6996 123.683 37.0533C123.866 37.407 124.124 37.6797 124.456 37.8714C124.789 38.0632 125.183 38.1591 125.639 38.1591C125.942 38.1591 126.219 38.1165 126.47 38.0312C126.721 37.946 126.937 37.8182 127.116 37.6477C127.295 37.4773 127.431 37.2685 127.525 37.0213L130.043 37.1875C129.915 37.7926 129.653 38.321 129.257 38.7727C128.865 39.2202 128.358 39.5696 127.736 39.821C127.118 40.0682 126.404 40.1918 125.594 40.1918ZM138.351 40H135.385L139.904 26.9091H143.471L147.984 40H145.018L141.739 29.9006H141.637L138.351 40ZM138.166 34.8544H145.172V37.0149H138.166V34.8544ZM157.449 32.9815L154.956 33.1349C154.914 32.9219 154.822 32.7301 154.681 32.5597C154.541 32.3849 154.355 32.2464 154.125 32.1442C153.899 32.0376 153.629 31.9844 153.313 31.9844C152.892 31.9844 152.536 32.0739 152.246 32.2528C151.956 32.4276 151.811 32.6619 151.811 32.956C151.811 33.1903 151.905 33.3885 152.093 33.5504C152.28 33.7124 152.602 33.8423 153.058 33.9403L154.835 34.2983C155.789 34.4943 156.501 34.8097 156.97 35.2443C157.438 35.679 157.673 36.25 157.673 36.9574C157.673 37.6009 157.483 38.1655 157.104 38.6513C156.729 39.1371 156.213 39.5163 155.557 39.7891C154.905 40.0575 154.153 40.1918 153.301 40.1918C152.001 40.1918 150.965 39.9212 150.194 39.38C149.427 38.8345 148.977 38.093 148.845 37.1555L151.524 37.0149C151.605 37.4112 151.801 37.7138 152.112 37.9226C152.423 38.1271 152.821 38.2294 153.307 38.2294C153.784 38.2294 154.168 38.1378 154.458 37.9545C154.752 37.767 154.901 37.5263 154.905 37.2322C154.901 36.9851 154.796 36.7827 154.592 36.625C154.387 36.4631 154.072 36.3395 153.646 36.2543L151.945 35.9155C150.987 35.7237 150.273 35.3913 149.804 34.9183C149.34 34.4453 149.107 33.8423 149.107 33.1094C149.107 32.4787 149.278 31.9354 149.619 31.4794C149.964 31.0234 150.448 30.6719 151.07 30.4247C151.696 30.1776 152.429 30.054 153.269 30.054C154.509 30.054 155.485 30.3161 156.196 30.8402C156.912 31.3643 157.33 32.0781 157.449 32.9815ZM167.556 32.9815L165.064 33.1349C165.021 32.9219 164.929 32.7301 164.789 32.5597C164.648 32.3849 164.463 32.2464 164.233 32.1442C164.007 32.0376 163.736 31.9844 163.421 31.9844C162.999 31.9844 162.643 32.0739 162.353 32.2528C162.064 32.4276 161.919 32.6619 161.919 32.956C161.919 33.1903 162.012 33.3885 162.2 33.5504C162.387 33.7124 162.709 33.8423 163.165 33.9403L164.942 34.2983C165.897 34.4943 166.608 34.8097 167.077 35.2443C167.546 35.679 167.78 36.25 167.78 36.9574C167.78 37.6009 167.591 38.1655 167.211 38.6513C166.836 39.1371 166.321 39.5163 165.664 39.7891C165.012 40.0575 164.26 40.1918 163.408 40.1918C162.108 40.1918 161.073 39.9212 160.301 39.38C159.534 38.8345 159.085 38.093 158.953 37.1555L161.631 37.0149C161.712 37.4112 161.908 37.7138 162.219 37.9226C162.53 38.1271 162.929 38.2294 163.414 38.2294C163.892 38.2294 164.275 38.1378 164.565 37.9545C164.859 37.767 165.008 37.5263 165.012 37.2322C165.008 36.9851 164.904 36.7827 164.699 36.625C164.495 36.4631 164.179 36.3395 163.753 36.2543L162.053 35.9155C161.094 35.7237 160.38 35.3913 159.912 34.9183C159.447 34.4453 159.215 33.8423 159.215 33.1094C159.215 32.4787 159.385 31.9354 159.726 31.4794C160.071 31.0234 160.555 30.6719 161.177 30.4247C161.804 30.1776 162.537 30.054 163.376 30.054C164.616 30.054 165.592 30.3161 166.304 30.8402C167.02 31.3643 167.437 32.0781 167.556 32.9815ZM169.495 40V30.1818H172.218V40H169.495ZM170.863 28.9162C170.458 28.9162 170.111 28.782 169.821 28.5135C169.535 28.2408 169.393 27.9148 169.393 27.5355C169.393 27.1605 169.535 26.8388 169.821 26.5703C170.111 26.2976 170.458 26.1612 170.863 26.1612C171.268 26.1612 171.613 26.2976 171.898 26.5703C172.188 26.8388 172.333 27.1605 172.333 27.5355C172.333 27.9148 172.188 28.2408 171.898 28.5135C171.613 28.782 171.268 28.9162 170.863 28.9162ZM182.568 32.9815L180.075 33.1349C180.033 32.9219 179.941 32.7301 179.8 32.5597C179.66 32.3849 179.474 32.2464 179.244 32.1442C179.018 32.0376 178.748 31.9844 178.433 31.9844C178.011 31.9844 177.655 32.0739 177.365 32.2528C177.075 32.4276 176.93 32.6619 176.93 32.956C176.93 33.1903 177.024 33.3885 177.212 33.5504C177.399 33.7124 177.721 33.8423 178.177 33.9403L179.954 34.2983C180.908 34.4943 181.62 34.8097 182.089 35.2443C182.558 35.679 182.792 36.25 182.792 36.9574C182.792 37.6009 182.602 38.1655 182.223 38.6513C181.848 39.1371 181.332 39.5163 180.676 39.7891C180.024 40.0575 179.272 40.1918 178.42 40.1918C177.12 40.1918 176.085 39.9212 175.313 39.38C174.546 38.8345 174.097 38.093 173.964 37.1555L176.643 37.0149C176.724 37.4112 176.92 37.7138 177.231 37.9226C177.542 38.1271 177.94 38.2294 178.426 38.2294C178.903 38.2294 179.287 38.1378 179.577 37.9545C179.871 37.767 180.02 37.5263 180.024 37.2322C180.02 36.9851 179.915 36.7827 179.711 36.625C179.506 36.4631 179.191 36.3395 178.765 36.2543L177.065 35.9155C176.106 35.7237 175.392 35.3913 174.923 34.9183C174.459 34.4453 174.227 33.8423 174.227 33.1094C174.227 32.4787 174.397 31.9354 174.738 31.4794C175.083 31.0234 175.567 30.6719 176.189 30.4247C176.815 30.1776 177.548 30.054 178.388 30.054C179.628 30.054 180.604 30.3161 181.315 30.8402C182.031 31.3643 182.449 32.0781 182.568 32.9815ZM189.729 30.1818V32.2273H183.816V30.1818H189.729ZM185.159 27.8295H187.882V36.983C187.882 37.2344 187.92 37.4304 187.997 37.571C188.073 37.7074 188.18 37.8033 188.316 37.8587C188.457 37.9141 188.619 37.9418 188.802 37.9418C188.93 37.9418 189.058 37.9311 189.186 37.9098C189.313 37.8842 189.411 37.8651 189.48 37.8523L189.908 39.8786C189.771 39.9212 189.58 39.9702 189.333 40.0256C189.085 40.0852 188.785 40.1214 188.431 40.1342C187.775 40.1598 187.2 40.0724 186.705 39.8722C186.215 39.6719 185.834 39.3608 185.561 38.9389C185.289 38.517 185.154 37.9844 185.159 37.3409V27.8295ZM194.302 40.1854C193.676 40.1854 193.118 40.0767 192.628 39.8594C192.138 39.6378 191.75 39.3118 191.464 38.8814C191.183 38.4467 191.042 37.9055 191.042 37.2578C191.042 36.7124 191.143 36.2543 191.343 35.8835C191.543 35.5128 191.816 35.2145 192.161 34.9886C192.506 34.7628 192.898 34.5923 193.337 34.4773C193.78 34.3622 194.245 34.2812 194.731 34.2344C195.302 34.1747 195.762 34.1193 196.111 34.0682C196.461 34.0128 196.714 33.9318 196.872 33.8253C197.03 33.7187 197.108 33.5611 197.108 33.3523V33.3139C197.108 32.9091 196.981 32.5959 196.725 32.3743C196.474 32.1527 196.116 32.0419 195.651 32.0419C195.161 32.0419 194.771 32.1506 194.481 32.3679C194.192 32.581 194 32.8494 193.906 33.1733L191.388 32.9688C191.515 32.3722 191.767 31.8565 192.142 31.4219C192.517 30.983 193.001 30.6463 193.593 30.4119C194.189 30.1733 194.88 30.054 195.664 30.054C196.209 30.054 196.731 30.1179 197.23 30.2457C197.733 30.3736 198.178 30.5717 198.566 30.8402C198.958 31.1087 199.267 31.4538 199.493 31.8757C199.719 32.2933 199.831 32.794 199.831 33.3778V40H197.249V38.6385H197.172C197.015 38.9453 196.804 39.2159 196.54 39.4503C196.275 39.6804 195.958 39.8615 195.587 39.9936C195.216 40.1214 194.788 40.1854 194.302 40.1854ZM195.082 38.3061C195.483 38.3061 195.836 38.2273 196.143 38.0696C196.45 37.9077 196.691 37.6903 196.866 37.4176C197.04 37.1449 197.128 36.8359 197.128 36.4908V35.4489C197.042 35.5043 196.925 35.5554 196.776 35.6023C196.631 35.6449 196.467 35.6854 196.284 35.7237C196.101 35.7578 195.917 35.7898 195.734 35.8196C195.551 35.8452 195.385 35.8686 195.236 35.8899C194.916 35.9368 194.637 36.0114 194.398 36.1136C194.16 36.2159 193.974 36.3544 193.842 36.5291C193.71 36.6996 193.644 36.9126 193.644 37.1683C193.644 37.5391 193.778 37.8224 194.047 38.0185C194.319 38.2102 194.665 38.3061 195.082 38.3061ZM204.667 34.3239V40H201.944V30.1818H204.539V31.9141H204.654C204.872 31.343 205.236 30.8913 205.747 30.5589C206.259 30.2223 206.879 30.054 207.607 30.054C208.289 30.054 208.884 30.2031 209.391 30.5014C209.898 30.7997 210.292 31.2259 210.573 31.7798C210.855 32.3295 210.995 32.9858 210.995 33.7486V40H208.272V34.2344C208.276 33.6335 208.123 33.1648 207.812 32.8281C207.501 32.4872 207.073 32.3168 206.527 32.3168C206.161 32.3168 205.837 32.3956 205.556 32.5533C205.279 32.7109 205.061 32.9411 204.904 33.2436C204.75 33.5419 204.671 33.902 204.667 34.3239ZM217.577 40.1918C216.572 40.1918 215.707 39.9787 214.982 39.5526C214.262 39.1222 213.708 38.5256 213.32 37.7628C212.937 37 212.745 36.1222 212.745 35.1293C212.745 34.1236 212.939 33.2415 213.327 32.483C213.719 31.7202 214.275 31.1257 214.995 30.6996C215.715 30.2692 216.572 30.054 217.565 30.054C218.421 30.054 219.171 30.2095 219.815 30.5206C220.458 30.8317 220.967 31.2685 221.342 31.831C221.717 32.3935 221.924 33.054 221.962 33.8125H219.393C219.32 33.3224 219.129 32.9283 218.817 32.63C218.511 32.3274 218.108 32.1761 217.609 32.1761C217.188 32.1761 216.819 32.2912 216.504 32.5213C216.192 32.7472 215.95 33.0774 215.775 33.5121C215.6 33.9467 215.513 34.473 215.513 35.0909C215.513 35.7173 215.598 36.25 215.768 36.6889C215.943 37.1278 216.188 37.4624 216.504 37.6925C216.819 37.9226 217.188 38.0376 217.609 38.0376C217.92 38.0376 218.2 37.9737 218.447 37.8459C218.698 37.718 218.905 37.5327 219.067 37.2898C219.233 37.0426 219.342 36.7464 219.393 36.4013H221.962C221.92 37.1513 221.715 37.8118 221.349 38.3828C220.987 38.9496 220.486 39.3928 219.847 39.7124C219.207 40.032 218.451 40.1918 217.577 40.1918ZM228.18 40.1918C227.17 40.1918 226.301 39.9872 225.572 39.5781C224.848 39.1648 224.29 38.581 223.898 37.8267C223.506 37.0682 223.309 36.1712 223.309 35.1357C223.309 34.1257 223.506 33.2393 223.898 32.4766C224.29 31.7138 224.841 31.1193 225.553 30.6932C226.269 30.267 227.108 30.054 228.072 30.054C228.719 30.054 229.322 30.1584 229.881 30.3672C230.443 30.5717 230.933 30.8807 231.351 31.294C231.773 31.7074 232.101 32.2273 232.335 32.8537C232.569 33.4759 232.687 34.2045 232.687 35.0398V35.7876H224.396V34.1001H230.123C230.123 33.7081 230.038 33.3608 229.868 33.0582C229.697 32.7557 229.461 32.5192 229.158 32.3487C228.86 32.174 228.513 32.0866 228.116 32.0866C227.703 32.0866 227.336 32.1825 227.017 32.3743C226.702 32.5618 226.454 32.8153 226.275 33.1349C226.096 33.4503 226.005 33.8018 226.001 34.1896V35.794C226.001 36.2798 226.09 36.6996 226.269 37.0533C226.452 37.407 226.71 37.6797 227.042 37.8714C227.375 38.0632 227.769 38.1591 228.225 38.1591C228.528 38.1591 228.805 38.1165 229.056 38.0312C229.307 37.946 229.523 37.8182 229.702 37.6477C229.881 37.4773 230.017 37.2685 230.111 37.0213L232.629 37.1875C232.501 37.7926 232.239 38.321 231.843 38.7727C231.451 39.2202 230.944 39.5696 230.322 39.821C229.704 40.0682 228.99 40.1918 228.18 40.1918Z" fill="black"/>
</svg>
